<svg xmlns="http://www.w3.org/2000/svg" xmlns:xlink="http://www.w3.org/1999/xlink" width="26" height="26" viewBox="0 0 26 26">
  <defs>
    <clipPath id="clip-Icon_Schedule">
      <rect width="26" height="26"/>
    </clipPath>
  </defs>
  <g id="Icon_Schedule" data-name="Icon Schedule" clip-path="url(#clip-Icon_Schedule)">
    <rect width="26" height="26" fill="#fff"/>
    <g id="Group_1" data-name="Group 1" transform="translate(1 1)">
      <path id="Path_2" data-name="Path 2" d="M19.737,10.457V7.639h.346a.627.627,0,0,0,.627-.627V2.754a.627.627,0,0,0-.627-.627H17.61V.627A.627.627,0,0,0,16.983,0H14.552a.627.627,0,0,0-.627.627v1.5H6.787V.627A.627.627,0,0,0,6.16,0H3.729A.627.627,0,0,0,3.1.627v1.5H.63A.628.628,0,0,0,0,2.754V7.012a.627.627,0,0,0,.627.627H.972v10.03A.627.627,0,0,0,1.6,18.3h9.626a6.609,6.609,0,1,0,8.513-7.838ZM2.226,7.639H18.481v2.535a6.871,6.871,0,0,0-.837-.056,6.617,6.617,0,0,0-6.61,6.61c0,.107,0,.211.008.315H2.226Zm15.418,3.732a5.357,5.357,0,1,1-5.357,5.357A5.363,5.363,0,0,1,17.643,11.371ZM1.253,6.385v-3H3.1v1.5a.627.627,0,0,0,.627.627H6.158a.627.627,0,0,0,.627-.627v-1.5H13.92v1.5a.627.627,0,0,0,.627.627h2.431a.627.627,0,0,0,.627-.627v-1.5h1.846v3H1.253Zm4.28-3.634h0v1.5H4.356v-3H5.534Zm10.82,1.506H15.176v-3h1.178Z" fill="#d0d0d0"/>
      <path id="Path_3" data-name="Path 3" d="M63.761,52.861a.627.627,0,0,0,.888-.885L62.013,49.34V46.347a.627.627,0,0,0-1.253,0V49.6a.632.632,0,0,0,.183.444Z" transform="translate(-43.684 -32.871)" fill="#d0d0d0"/>
    </g>
  </g>
</svg>
