<svg xmlns="http://www.w3.org/2000/svg" xmlns:xlink="http://www.w3.org/1999/xlink" width="26" height="26" viewBox="0 0 63 61">
  <defs>
    <clipPath id="clip-Icon_Mix_Match">
      <rect width="63" height="61"/>
    </clipPath>
  </defs>
  <g id="Icon_Mix_Match" data-name="Icon Mix &amp; Match" clip-path="url(#clip-Icon_Mix_Match)">
    <rect width="63" height="61" fill="#fff"/>
    <g id="Group_213" data-name="Group 213" transform="translate(2.493 -11)">
      <g id="Group_10" data-name="Group 10" transform="translate(0.507 13)">
        <circle id="Ellipse_4" data-name="Ellipse 4" cx="28.992" cy="28.992" r="28.992" fill="#c7251d"/>
      </g>
      <g id="Group_85" data-name="Group 85" transform="translate(10 22)">
        <path id="Path_245" data-name="Path 245" d="M9.034,24.789a1.809,1.809,0,0,1-2.1-2.246,1.783,1.783,0,0,1,.47-.8,2.024,2.024,0,0,0,.6-1.1,2.356,2.356,0,0,0-2.293-2.8H0A17.837,17.837,0,0,1,17.836,0h.3V5.324a2.344,2.344,0,0,0,3.3,2.211,1.99,1.99,0,0,0,.619-.44,1.805,1.805,0,1,1,.787,3.031,1.862,1.862,0,0,1-.8-.463,2.318,2.318,0,0,0-2.707-.34,2.39,2.39,0,0,0-1.2,2.111v6.4H11.646A2.346,2.346,0,0,0,9.332,20.47a2.181,2.181,0,0,0,.648,1.3,1.8,1.8,0,0,1-.946,3.019Z" fill="#fff" opacity="0.247"/>
        <path id="Path_246" data-name="Path 246" d="M68.868,86.044V80.635A2.375,2.375,0,0,0,67.775,78.6a2.4,2.4,0,0,0-2.211-.156,1.933,1.933,0,0,0-.619.442,1.806,1.806,0,1,1-.69-3,1.737,1.737,0,0,1,.66.4,2.306,2.306,0,0,0,.82.532,2.333,2.333,0,0,0,3.128-2.253V68.14h6.483a2.322,2.322,0,0,0,1.679-3.927,1.786,1.786,0,0,1-.447-.78,1.807,1.807,0,1,1,3.048.773,2.2,2.2,0,0,0-.65,1.305A2.347,2.347,0,0,0,81.3,68.14h5.3v.177a17.728,17.728,0,0,1-17.73,17.727Z" transform="translate(-47.249 -46.696)" fill="#fff" opacity="0.689"/>
        <path id="Path_247" data-name="Path 247" d="M85.77,5.457a.106.106,0,0,0,.18.076,4.022,4.022,0,1,1,0,5.8.106.106,0,0,0-.18.076v7.438a.384.384,0,0,0,.383.383h7.438a.106.106,0,0,0,.076-.18,4.019,4.019,0,1,1,5.795,0,.106.106,0,0,0,.076.18h5.3v-.156A19.066,19.066,0,0,0,85.77,0h0Z" transform="translate(-65.492)" fill="#fff" opacity="0.449"/>
        <path id="Path_248" data-name="Path 248" d="M11.651,84.82a.106.106,0,0,0-.076.18,4.02,4.02,0,1,1-5.795,0,.106.106,0,0,0-.076-.18H0a19.3,19.3,0,0,0,19.295,19.295h.059V98.59a.106.106,0,0,0-.18-.076,4.022,4.022,0,1,1,0-5.795.106.106,0,0,0,.18-.076V85.172l0-.038,0-.026,0-.031,0-.031,0-.031,0-.033,0-.028a.384.384,0,0,0-.291-.132H11.651Z" transform="translate(0 -64.766)" fill="#fff" opacity="0.505"/>
      </g>
    </g>
  </g>
</svg>
