<svg xmlns="http://www.w3.org/2000/svg" xmlns:xlink="http://www.w3.org/1999/xlink" width="26" height="26" viewBox="0 0 26 26">
  <defs>
    <clipPath id="clip-Icon_News">
      <rect width="26" height="26"/>
    </clipPath>
  </defs>
  <g id="Icon_News" data-name="Icon News" clip-path="url(#clip-Icon_News)" opacity="0.5">
    <rect width="26" height="26" fill="#fff"/>
    <path id="Path_7" data-name="Path 7" d="M10.687,0h0a10.718,10.718,0,0,0,0,21.437h0A10.718,10.718,0,0,0,10.687,0Zm.6,10.111V1.721a11.611,11.611,0,0,1,4.479,8.393H11.291Zm-1.211,0H5.6A11.617,11.617,0,0,1,10.08,1.718Zm0,1.211v8.393A11.611,11.611,0,0,1,5.6,11.323Zm1.211,0H15.77a11.617,11.617,0,0,1-4.479,8.393Zm5.69-1.211a13.03,13.03,0,0,0-4.066-8.625,9.535,9.535,0,0,1,7.225,8.625ZM8.456,1.486A13.03,13.03,0,0,0,4.39,10.111H1.234A9.529,9.529,0,0,1,8.456,1.486ZM4.39,11.323a13.03,13.03,0,0,0,4.066,8.625,9.532,9.532,0,0,1-7.222-8.625Zm8.525,8.628a13.03,13.03,0,0,0,4.066-8.625h3.159A9.538,9.538,0,0,1,12.915,19.95Z" transform="translate(2 2)" fill="red"/>
  </g>
</svg>
